<?xml version="1.0" encoding="UTF-8" standalone="no"?>
<!-- Created with Inkscape (http://www.inkscape.org/) -->

<svg
   xmlns:dc="http://purl.org/dc/elements/1.1/"
   xmlns:cc="http://creativecommons.org/ns#"
   xmlns:rdf="http://www.w3.org/1999/02/22-rdf-syntax-ns#"
   xmlns:svg="http://www.w3.org/2000/svg"
   xmlns="http://www.w3.org/2000/svg"
   xmlns:sodipodi="http://sodipodi.sourceforge.net/DTD/sodipodi-0.dtd"
   xmlns:inkscape="http://www.inkscape.org/namespaces/inkscape"
   version="1.1"
   id="svg3690"
   width="133.33333"
   height="133.33333"
   viewBox="0 0 133.33333 133.33333"
   sodipodi:docname="danger-sign.svg"
   inkscape:version="0.92.1 r15371">
  <metadata
     id="metadata3696">
    <rdf:RDF>
      <cc:Work
         rdf:about="">
        <dc:format>image/svg+xml</dc:format>
        <dc:type
           rdf:resource="http://purl.org/dc/dcmitype/StillImage" />
        <dc:title></dc:title>
      </cc:Work>
    </rdf:RDF>
  </metadata>
  <defs
     id="defs3694" />
  <sodipodi:namedview
     pagecolor="#ffffff"
     bordercolor="#666666"
     borderopacity="1"
     objecttolerance="10"
     gridtolerance="10"
     guidetolerance="10"
     inkscape:pageopacity="0"
     inkscape:pageshadow="2"
     inkscape:window-width="1920"
     inkscape:window-height="1017"
     id="namedview3692"
     showgrid="false"
     inkscape:zoom="1.7700001"
     inkscape:cx="66.666664"
     inkscape:cy="66.666664"
     inkscape:window-x="-8"
     inkscape:window-y="-8"
     inkscape:window-maximized="1"
     inkscape:current-layer="svg3690" />
  <g
     id="g3700"
     transform="translate(0.56497074,1.1299434)">
    <path
       style="fill:#fadbca;stroke-width:0.66666663"
       d="m 65.833332,91.558478 c 0.458333,-0.18494 1.208333,-0.18494 1.666666,0 0.458334,0.18494 0.08333,0.33626 -0.833333,0.33626 -0.916667,0 -1.291667,-0.15132 -0.833333,-0.33626 z"
       id="path3710"
       inkscape:connector-curvature="0" />
    <path
       style="fill:#f7b590;stroke-width:0.66666663"
       d="m 65.833332,104.89181 c 0.458333,-0.18494 1.208333,-0.18494 1.666666,0 0.458334,0.18494 0.08333,0.33626 -0.833333,0.33626 -0.916667,0 -1.291667,-0.15132 -0.833333,-0.33626 z"
       id="path3708"
       inkscape:connector-curvature="0" />
    <path
       style="fill:#f49965;stroke-width:0.66666663"
       d="m 19.282876,113.5 -1.61621,-1.83334 1.833334,1.61621 c 1.008333,0.88892 1.833333,1.71392 1.833333,1.83333 0,0.52286 -0.539866,0.0973 -2.050457,-1.6162 z m 94.050454,0.16666 C 114.1945,112.75 115.04908,112 115.23242,112 c 0.18333,0 -0.37126,0.75 -1.23242,1.66666 -0.86117,0.91667 -1.71576,1.66667 -1.89909,1.66667 -0.18333,0 0.37125,-0.75 1.23242,-1.66667 z M 19.333333,19.666666 C 20.194496,18.75 21.049085,18 21.232418,18 c 0.183333,0 -0.371255,0.75 -1.232419,1.666666 -0.861163,0.916667 -1.715751,1.666667 -1.899085,1.666667 -0.183333,0 0.371256,-0.75 1.232419,-1.666667 z M 113.28287,19.5 111.66666,17.666666 113.5,19.282876 c 1.71352,1.510591 2.13906,2.050457 1.6162,2.050457 -0.11941,0 -0.94441,-0.825 -1.83333,-1.833333 z"
       id="path3706"
       inkscape:connector-curvature="0" />
    <path
       style="fill:#f38c51;stroke-width:0.66666663"
       d="m 63.166665,132.89181 c 0.458333,-0.18494 1.208333,-0.18494 1.666667,0 0.458333,0.18494 0.08333,0.33626 -0.833334,0.33626 -0.916666,0 -1.291666,-0.15132 -0.833333,-0.33626 z m 5.333333,0 c 0.458334,-0.18494 1.208334,-0.18494 1.666667,0 0.458333,0.18494 0.08333,0.33626 -0.833333,0.33626 -0.916667,0 -1.291667,-0.15132 -0.833334,-0.33626 z M 59.385963,98.277778 c 0.03199,-0.776634 0.189961,-0.9346 0.402778,-0.40278 0.192581,0.481246 0.168896,1.056246 -0.05263,1.27778 -0.221528,0.221526 -0.379094,-0.172227 -0.350148,-0.875 z m 14.000002,0 c 0.032,-0.776634 0.18996,-0.9346 0.402773,-0.40278 0.19258,0.481246 0.1689,1.056246 -0.0526,1.27778 -0.221533,0.221526 -0.379093,-0.172227 -0.350147,-0.875 z M 59.627589,52.333332 c 3.17e-4,-10.633333 0.09236,-14.889981 0.204548,-9.459217 0.112185,5.430764 0.111926,14.130764 -5.75e-4,19.333333 -0.112501,5.20257 -0.204289,0.759217 -0.203973,-9.874116 z m 14.000002,0 c 3.14e-4,-10.633333 0.09236,-14.889981 0.204547,-9.459217 0.112187,5.430764 0.111927,14.130764 -5.73e-4,19.333333 -0.112507,5.20257 -0.204294,0.759217 -0.203974,-9.874116 z m -73.52232784,17 c 0,-0.916667 0.15131578,-1.291667 0.3362573,-0.833334 0.18494151,0.458334 0.18494151,1.208334 0,1.666667 -0.18494152,0.458333 -0.3362573,0.08333 -0.3362573,-0.833333 z m 132.66665684,0 c 0,-0.916667 0.15132,-1.291667 0.33626,-0.833334 0.18494,0.458334 0.18494,1.208334 0,1.666667 -0.18494,0.458333 -0.33626,0.08333 -0.33626,-0.833333 z M 0.10526316,63.999998 c 0,-0.916666 0.15131578,-1.291666 0.3362573,-0.833333 0.18494151,0.458333 0.18494151,1.208333 0,1.666667 -0.18494152,0.458333 -0.3362573,0.08333 -0.3362573,-0.833334 z m 132.66665684,0 c 0,-0.916666 0.15132,-1.291666 0.33626,-0.833333 0.18494,0.458333 0.18494,1.208333 0,1.666667 -0.18494,0.458333 -0.33626,0.08333 -0.33626,-0.833334 z M 63.166665,0.22514619 c 0.458333,-0.18494151 1.208333,-0.18494151 1.666667,0 0.458333,0.18494152 0.08333,0.3362573 -0.833334,0.3362573 -0.916666,0 -1.291666,-0.15131578 -0.833333,-0.3362573 z m 5.333333,0 c 0.458334,-0.18494151 1.208334,-0.18494151 1.666667,0 0.458333,0.18494152 0.08333,0.3362573 -0.833333,0.3362573 -0.916667,0 -1.291667,-0.15131578 -0.833334,-0.3362573 z"
       id="path3704"
       inkscape:connector-curvature="0" />
    <path
       style="fill:#f27731;stroke-width:0.66666663"
       d="M 59.999998,132.58303 C 31.335621,129.90857 7.2014265,107.91448 1.5688906,79.333331 0.30481047,72.919012 0.30481047,60.414316 1.5688906,53.999999 4.2404184,40.443875 10.089045,29.718551 20.291199,19.666666 33.460494,6.6913458 48.335401,0.56425794 66.666665,0.56425794 c 18.331266,0 33.206173,6.12708786 46.375465,19.10240806 13.42494,13.227203 19.70767,28.210615 19.70767,46.999999 0,12.838313 -3.11196,24.168199 -9.54337,34.745115 -4.55575,7.49228 -14.94423,17.75537 -22.40715,22.13672 -12.290969,7.2158 -26.520535,10.36678 -40.799282,9.03453 z m 10.085627,-28.29398 c 6.179686,-3.19564 3.648066,-12.955719 -3.360527,-12.955719 -6.951211,0 -9.697329,9.133839 -3.823037,12.715769 2.548703,1.5541 4.515244,1.6198 7.183564,0.23995 z m 0.37806,-28.259659 c 3.370286,-2.054993 3.646573,-4.094186 3.412166,-25.184268 L 73.666665,32.023581 71.502332,29.860275 c -3.04444,-3.042992 -6.626891,-3.042992 -9.671332,0 l -2.164335,2.163306 -0.209188,18.821542 c -0.139152,12.520097 0.04041,19.669215 0.536313,21.353422 0.823768,2.797693 3.857389,5.1298 6.672875,5.1298 0.916667,0 2.625327,-0.584527 3.79702,-1.298954 z"
       id="path3702"
       inkscape:connector-curvature="0" />
  </g>
</svg>
